<svg width="1799" height="958" viewBox="0 0 1799 958" fill="none" xmlns="http://www.w3.org/2000/svg">
  <rect width="1799" height="958" fill="#050806"/>
  <rect x="70" y="64" width="1659" height="830" rx="34" fill="#07100B" stroke="#2DD4BF" stroke-opacity=".28" stroke-width="2"/>
  <rect x="110" y="112" width="1579" height="72" rx="18" fill="#0B1710"/>
  <circle cx="150" cy="148" r="9" fill="#F87171"/>
  <circle cx="181" cy="148" r="9" fill="#FBBF24"/>
  <circle cx="212" cy="148" r="9" fill="#34D399"/>
  <rect x="1434" y="134" width="190" height="28" rx="14" fill="#34D399" fill-opacity=".18"/>
  <rect x="110" y="226" width="1012" height="616" rx="24" fill="#08140D" stroke="#34D399" stroke-opacity=".18"/>
  <rect x="1154" y="226" width="535" height="292" rx="24" fill="#06110A" stroke="#84CC16" stroke-opacity=".22"/>
  <rect x="1154" y="550" width="535" height="292" rx="24" fill="#06110A" stroke="#2DD4BF" stroke-opacity=".22"/>
  <g font-family="JetBrains Mono, Consolas, monospace" font-size="31" font-weight="600">
    <text x="158" y="294" fill="#64748B">01</text>
    <text x="158" y="352" fill="#64748B">02</text>
    <text x="158" y="410" fill="#64748B">03</text>
    <text x="158" y="468" fill="#64748B">04</text>
    <text x="158" y="526" fill="#64748B">05</text>
    <text x="236" y="294" fill="#A7F3D0">const</text>
    <text x="344" y="294" fill="#F8FAFC">room</text>
    <text x="442" y="294" fill="#5EEAD4">=</text>
    <text x="482" y="294" fill="#BEF264">await sync()</text>
    <text x="236" y="352" fill="#A7F3D0">run</text>
    <text x="300" y="352" fill="#F8FAFC">(language, source)</text>
    <text x="236" y="410" fill="#94A3B8">// live output streams to every editor</text>
    <text x="236" y="468" fill="#A7F3D0">socket</text>
    <text x="350" y="468" fill="#F8FAFC">.emit(</text>
    <text x="458" y="468" fill="#BEF264">"compile"</text>
    <text x="652" y="468" fill="#F8FAFC">)</text>
    <text x="236" y="526" fill="#5EEAD4">return</text>
    <text x="358" y="526" fill="#F8FAFC">result</text>
  </g>
  <rect x="237" y="612" width="370" height="24" rx="12" fill="#34D399" fill-opacity=".38"/>
  <rect x="237" y="664" width="610" height="24" rx="12" fill="#2DD4BF" fill-opacity=".22"/>
  <rect x="237" y="716" width="478" height="24" rx="12" fill="#84CC16" fill-opacity=".24"/>
  <g font-family="JetBrains Mono, Consolas, monospace" font-size="26" font-weight="600">
    <text x="1200" y="295" fill="#BEF264">OUTPUT</text>
    <text x="1200" y="362" fill="#F8FAFC">Compiled successfully</text>
    <text x="1200" y="416" fill="#A7F3D0">Execution time: 0.43s</text>
    <text x="1200" y="619" fill="#5EEAD4">COLLABORATORS</text>
  </g>
  <circle cx="1240" cy="692" r="34" fill="#34D399"/>
  <circle cx="1311" cy="692" r="34" fill="#2DD4BF"/>
  <circle cx="1382" cy="692" r="34" fill="#84CC16"/>
  <rect x="1200" y="763" width="356" height="22" rx="11" fill="#34D399" fill-opacity=".18"/>
  <rect x="1200" y="805" width="270" height="22" rx="11" fill="#2DD4BF" fill-opacity=".14"/>
  <path d="M0 958C253 824 438 817 671 893C983 995 1236 827 1799 897V958H0Z" fill="#34D399" fill-opacity=".08"/>
</svg>
